<?xml version="1.0" standalone="no"?>
<!DOCTYPE svg PUBLIC "-//W3C//DTD SVG 20010904//EN"
 "http://www.w3.org/TR/2001/REC-SVG-20010904/DTD/svg10.dtd">
<svg version="1.0" xmlns="http://www.w3.org/2000/svg"
 width="128.000000pt" height="128.000000pt" viewBox="0 0 128.000000 128.000000"
 preserveAspectRatio="xMidYMid meet">
<metadata>
Created by potrace 1.14, written by Peter Selinger 2001-2017
</metadata>
<g transform="translate(0.000000,128.000000) scale(0.100000,-0.100000)"
fill="#000000" stroke="none">
<path d="M525 1249 c-33 -4 -73 -12 -89 -18 -25 -10 -28 -15 -22 -41 7 -39 51
-129 80 -164 l22 -28 39 37 c69 64 143 116 212 150 l66 32 -69 16 c-84 20
-160 25 -239 16z"/>
<path d="M240 1136 c-25 -19 -58 -48 -75 -65 -29 -31 -29 -32 -18 -86 7 -30
26 -83 42 -118 31 -65 100 -167 113 -167 4 0 15 15 24 33 9 17 37 62 61 99
l45 67 -42 61 c-41 60 -90 157 -94 185 -4 25 -10 24 -56 -9z"/>
<path d="M810 1063 c-66 -33 -200 -145 -200 -166 1 -29 247 -187 289 -187 18
0 63 163 68 246 7 104 -10 145 -60 142 -18 -1 -61 -17 -97 -35z"/>
<path d="M1100 1039 c-5 -146 -25 -256 -65 -361 -5 -12 -2 -18 6 -19 8 0 23
-3 34 -5 32 -8 159 -7 183 0 18 6 21 13 17 39 -18 104 -65 209 -129 291 -25
33 -46 58 -46 55z"/>
<path d="M29 829 c-8 -32 -14 -101 -13 -169 1 -100 4 -125 29 -190 28 -76 96
-191 131 -222 18 -16 19 -14 21 65 1 55 10 111 27 170 23 78 25 90 11 103 -40
41 -114 147 -151 218 l-41 79 -14 -54z"/>
<path d="M486 746 c-20 -31 -46 -77 -60 -104 l-25 -49 43 -36 c57 -47 150
-106 215 -137 l53 -24 20 24 c10 14 42 58 69 99 l49 74 -91 48 c-50 27 -118
70 -152 97 -34 26 -67 51 -74 55 -8 5 -25 -12 -47 -47z"/>
<path d="M915 457 c-33 -50 -61 -97 -63 -103 -8 -31 261 -51 341 -25 32 11 38
18 55 74 11 34 23 76 26 94 l5 32 -73 -3 c-65 -3 -125 2 -206 19 -22 4 -31 -5
-85 -88z"/>
<path d="M341 428 c-37 -121 -20 -258 32 -258 50 0 152 51 221 111 l25 22 -47
25 c-41 22 -131 80 -198 127 -20 15 -21 13 -33 -27z"/>
<path d="M713 213 c-58 -52 -149 -112 -206 -138 l-52 -22 80 -18 c182 -41 350
-12 495 86 31 20 62 44 69 53 12 14 8 16 -40 17 -30 0 -63 2 -74 3 -68 9 -118
19 -172 35 l-61 19 -39 -35z"/>
</g>
</svg>
